<svg version="1.1" id="s_facebook" xmlns="http://www.w3.org/2000/svg" xmlns:xlink="http://www.w3.org/1999/xlink" x="0px" y="0px" viewbox="0 0 17 31.4" style="enable-background:new 0 0 17 31.4;" xml:space="preserve"> <g> <g> <path class="st2" d="M16.4,0l-4.1,0C7.7,0,4.7,3,4.7,7.7v3.6H0.6c-0.4,0-0.6,0.3-0.6,0.6v5.2c0,0.4,0.3,0.6,0.6,0.6h4.1v13
 c0,0.4,0.3,0.6,0.6,0.6h5.3c0.4,0,0.6-0.3,0.6-0.6v-13h4.8c0.4,0,0.6-0.3,0.6-0.6l0-5.2c0-0.2-0.1-0.3-0.2-0.5
 c-0.1-0.1-0.3-0.2-0.5-0.2h-4.8v-3c0-1.5,0.3-2.2,2.2-2.2l2.7,0c0.4,0,0.6-0.3,0.6-0.6V0.6C17,0.3,16.7,0,16.4,0z" /> </g> </g> </svg>