<svg version="1.1" id="s_linkedin" xmlns="http://www.w3.org/2000/svg" xmlns:xlink="http://www.w3.org/1999/xlink" x="0px" y="0px" viewbox="0 0 17 17" style="enable-background:new 0 0 17 17;" xml:space="preserve"> <g> <path class="st2" d="M17,17L17,17L17,17l0-6.2c0-3.1-0.7-5.4-4.2-5.4c-1.7,0-2.9,0.9-3.3,1.8h0V5.6H6V17h3.5v-5.6
 c0-1.5,0.3-2.9,2.1-2.9c1.8,0,1.8,1.7,1.8,3V17L17,17z" /> <path class="st2" d="M0.3,5.7h3.5V17H0.3L0.3,5.7z" /> <path class="st2" d="M2,0C0.9,0,0,0.9,0,2s0.9,2.1,2,2.1s2-0.9,2-2.1C4.1,0.9,3.2,0,2,0z" /> </g> </svg>