<?xml version="1.0" encoding="utf-8"?>
<!-- Generator: Adobe Illustrator 25.0.0, SVG Export Plug-In . SVG Version: 6.00 Build 0)  -->
<svg version="1.1" id="Icons" xmlns="http://www.w3.org/2000/svg" xmlns:xlink="http://www.w3.org/1999/xlink" x="0px" y="0px"
	 viewBox="0 0 213.9 213.6" style="enable-background:new 0 0 213.9 213.6;" xml:space="preserve" height="10px" width="10px" fill="rgba(0,0,0,0.44)">
<path d="M6.5,207.3c8.3,8.3,21.8,8.3,30.2,0l70.3-70.3l70.3,70.3c8.5,8.2,22,8,30.2-0.5c8-8.3,8-21.4,0-29.6l-70.3-70.3l70.3-70.3
	c8.5-8.2,8.7-21.7,0.5-30.2C199.7-2,186.2-2.2,177.7,6c-0.2,0.2-0.4,0.3-0.5,0.5l-70.3,70.3L36.7,6.5C28.5-2,15-2.2,6.5,6
	C-2,14.2-2.2,27.7,6,36.2c0.2,0.2,0.3,0.4,0.5,0.5l70.3,70.3L6.5,177.2C-1.8,185.5-1.8,199,6.5,207.3z"/>
</svg>
