<?xml version="1.0" encoding="utf-8"?>
<!-- Generator: Adobe Illustrator 24.1.3, SVG Export Plug-In . SVG Version: 6.00 Build 0)  -->
<svg version="1.1" xmlns="http://www.w3.org/2000/svg" xmlns:xlink="http://www.w3.org/1999/xlink" x="0px" y="0px"
	 viewBox="0 0 612 150.3" style="enable-background:new 0 0 612 150.3;" xml:space="preserve">
<style type="text/css">
	.st0{fill:#F19521;}
	.st1{fill:#FFFFFF;}
	.st2{fill:#FFFFFF;stroke:#231F20;stroke-width:2;}
	.st3{fill:none;stroke:#231F20;stroke-width:2;}
	.st4{fill:#231F20;}
</style>
<g id="Layer_2">
</g>
<g id="Layer_1">
	<path class="st0" d="M66,150.3c36.3,0,65.9-29.6,65.9-66c0-36.3-29.6-65.9-65.9-65.9C29.6,18.4,0,48,0,84.3
		C0,120.7,29.6,150.3,66,150.3z"/>
	<path class="st1" d="M18.5,130.3c-9.7-10-16.3-23.2-18.1-37.7c4.8-0.8,9.9-2.5,17.6-12.1l31.8-56.6C41.9,58.3,16.6,96.7,18.5,130.3
		L18.5,130.3z"/>
	<path class="st2" d="M87.5,0.4c-9.2,23.7-61.7,147.2,0.4,125.3C20.5,156.4,35.3,112,44.8,84.8C60.8,40.7,74,31,87.5,0.4z"/>
	<path class="st3" d="M13.2,103.7c27.1-8.1,165.2-21.6,117.9-61.1c57.4,46.9,11.1,53.2-17.5,56.8C66.8,104.6,46.7,102.3,13.2,103.7z
		"/>
	<path class="st4" d="M206.2,80.2h-7.9v-53H176v-6.3h52v6.3h-21.9L206.2,80.2L206.2,80.2z M238.9,50.7c0-5.7,1.8-9.2,5.4-10.3
		c3.6-1.1,8.1-1.7,13.5-1.7c6.6,0,11.7,0.8,15.3,2.4c3.6,1.6,5.4,5.7,5.4,12.2v27h-6.7l0.4-4.3c-2,2.2-4.4,3.6-7.2,4.1
		c-2.8,0.5-5.8,0.8-8.9,0.8c-5.9,0-10.5-0.8-13.8-2.3c-3.4-1.5-5-5.1-5-10.8c0-5.5,1.8-9,5.3-10.4s8-2.1,13.4-2.1c0.8,0,1.7,0,2.5,0
		c0.9,0,1.7,0.1,2.5,0.1c1.2,0.1,2.3,0.3,3.5,0.4c1.1,0.2,2.2,0.4,3.3,0.8c0.8,0.2,1.4,0.6,2,1.1c0.5,0.5,1,1.1,1.4,1.7v-5
		c0-5.1-0.8-8.3-2.4-9.5s-5.4-1.9-11.3-1.9c-0.6,0-1.2,0-2,0c-0.7,0-1.4,0.1-2.1,0.1c-0.9,0.1-1.9,0.2-2.8,0.4
		c-0.9,0.2-1.7,0.6-2.3,1c-0.7,0.4-1.2,0.9-1.5,1.6c-0.3,0.6-0.4,1.3-0.5,2c-0.1,0.2-0.1,0.4-0.1,0.6v1.2c0,0.2,0,0.4,0.1,0.7
		L238.9,50.7L238.9,50.7z M247.2,74.2c1.7,1.2,4.5,1.7,8.5,1.7h2.2c0.7,0,1.5,0,2.3-0.1c2.8-0.1,5.5-0.7,7.9-1.6
		c2.4-1,3.6-3,3.6-6.1c0-3.7-1.3-6-3.9-6.9c-2.6-0.8-5.7-1.2-9.4-1.2h-3.6c-0.7,0-1.4,0-2.1,0.1c-1.2,0.1-2.3,0.3-3.4,0.6
		c-1.1,0.3-2,0.7-2.8,1.3c-0.5,0.4-0.9,0.8-1.2,1.4s-0.4,1.2-0.5,1.9c-0.1,0.3-0.1,0.6-0.1,0.9v0.9C244.6,70.7,245.5,73,247.2,74.2
		L247.2,74.2z M320.6,43.6h-18.4v25.5c0,2.4,0.4,4,1.2,5c0.8,1,2.7,1.5,5.5,1.5c3.2,0,5.1-0.7,5.8-2.1c0.7-1.4,1-3.1,1-5.3v-2.8h6.8
		c0,4.3-0.7,7.9-2.2,10.9c-1.5,2.9-5.3,4.4-11.4,4.4c-5.3,0-9-0.8-11-2.5s-3-4.7-3-9.1V43.6h-6.2v-5h6.2V28.5h7.3v10.1h18.4
		L320.6,43.6L320.6,43.6z M352.3,80.2h-10l-15.9-41.5h7.3l13.7,36.8l13.1-36.8h7.8L352.3,80.2L352.3,80.2z M378.5,50.7
		c0-5.7,1.8-9.2,5.4-10.3c3.6-1.1,8.1-1.7,13.5-1.7c6.6,0,11.7,0.8,15.3,2.4c3.6,1.6,5.4,5.7,5.4,12.2v27h-6.7l0.4-4.3
		c-2,2.2-4.4,3.6-7.2,4.1c-2.8,0.5-5.8,0.8-8.9,0.8c-5.9,0-10.5-0.8-13.8-2.3c-3.4-1.5-5-5.1-5-10.8c0-5.5,1.8-9,5.3-10.4
		s8-2.1,13.4-2.1c0.8,0,1.7,0,2.5,0c0.9,0,1.7,0.1,2.5,0.1c1.2,0.1,2.3,0.3,3.5,0.4c1.1,0.2,2.2,0.4,3.3,0.8c0.8,0.2,1.4,0.6,2,1.1
		c0.5,0.5,1,1.1,1.4,1.7v-5c0-5.1-0.8-8.3-2.4-9.5S403,43,397.1,43c-0.6,0-1.2,0-2,0c-0.7,0-1.4,0.1-2.1,0.1
		c-0.9,0.1-1.9,0.2-2.8,0.4c-0.9,0.2-1.7,0.6-2.3,1c-0.7,0.4-1.2,0.9-1.5,1.6c-0.3,0.6-0.4,1.3-0.5,2c-0.1,0.2-0.1,0.4-0.1,0.6v1.2
		c0,0.2,0,0.4,0.1,0.7L378.5,50.7L378.5,50.7z M386.7,74.2c1.7,1.2,4.5,1.7,8.5,1.7h2.2c0.7,0,1.5,0,2.3-0.1
		c2.8-0.1,5.5-0.7,7.9-1.6c2.4-1,3.6-3,3.6-6.1c0-3.7-1.3-6-3.9-6.9c-2.6-0.8-5.7-1.2-9.4-1.2h-3.6c-0.7,0-1.4,0-2.1,0.1
		c-1.2,0.1-2.3,0.3-3.4,0.6c-1.1,0.3-2,0.7-2.8,1.3c-0.5,0.4-0.9,0.8-1.2,1.4c-0.3,0.6-0.4,1.2-0.5,1.9c-0.1,0.3-0.1,0.6-0.1,0.9
		v0.9C384.2,70.7,385,73,386.7,74.2L386.7,74.2z M474.5,37.1c-0.3-4.4-1.2-7.3-2.8-8.8c-1.6-1.5-5-2.2-10.3-2.2h-3.7
		c-0.9,0-1.9,0-3,0s-2.3,0.1-3.5,0.1c-1.5,0.1-2.9,0.3-4.3,0.5s-2.5,0.6-3.3,1.1c-1.1,0.6-1.9,1.4-2.4,2.4s-0.9,2.1-1.1,3.1
		c-0.1,0.5-0.1,0.9-0.1,1.4s0,0.9,0,1.3c0,3.3,0.6,5.7,1.8,7.4c1.2,1.7,4,2.7,8.3,2.9l4.9,0.2c1.6,0.1,3.2,0.1,4.7,0.1
		c6.5,0.1,12.1,0.9,16.7,2.4s6.9,6,6.9,13.6c0,4.5-0.8,8.4-2.3,11.6s-5.4,5.1-11.6,5.7c-4.3,0.2-8.7,0.4-13,0.4
		c-7.1,0-13-0.8-17.6-2.4s-6.9-6.1-6.9-13.6v-0.7c0-0.2,0-0.5,0.1-0.7c0-0.2,0-0.5,0-0.7s0-0.5,0-0.7h7.4c0,5.4,0.9,9,2.6,10.6
		c1.7,1.7,5.7,2.5,12,2.5h6.5c5.6,0,9.5-0.6,11.7-1.8c2.2-1.2,3.3-4.4,3.3-9.4c0-4-0.7-6.6-2-7.9s-4.2-2.1-8.7-2.2
		c-1.1-0.1-2.1-0.1-3.1-0.1s-2,0-3,0c-7.2-0.2-13.4-1.1-18.6-2.6s-7.9-6.2-7.9-14.1c0-7.2,2.1-11.7,6.3-13.4c4.2-1.8,9.9-2.7,17-2.7
		h1.9c7.1,0,13,0.7,17.6,2.2s6.9,6,6.9,13.6v0.9L474.5,37.1L474.5,37.1z M499.6,42.8c2.4-3.3,8-4.9,16.8-4.9
		c9.1,0,15.1,1.4,17.8,4.1c2.7,2.8,4.1,8.1,4.1,15.9c0,6.8-0.8,12.3-2.5,16.6c-1.7,4.2-7.4,6.3-17.3,6.3c-8.5,0-14.4-1.2-17.7-3.5
		c-3.2-2.3-4.8-7.4-4.8-15.1v-3.9C496,51.3,497.2,46.1,499.6,42.8L499.6,42.8z M503.4,61.7v1.9c0,0.7,0,1.4,0.1,2
		c0.1,1.7,0.4,3.4,0.8,4.9s1,2.7,2,3.6c0.8,0.7,1.8,1.1,3,1.3c1.2,0.2,2.5,0.3,3.8,0.4h4.3c4.1,0,7.3-0.5,9.6-1.5
		c2.2-1,3.5-3.5,3.8-7.4c0.1-0.8,0.1-1.6,0.1-2.4s0-1.6,0-2.4c0.1-0.8,0.1-1.6,0.1-2.4v-2.4c0-5.1-0.5-8.7-1.6-10.9
		c-1.1-2.2-4.5-3.3-10.4-3.3h-1.6c-6.2,0-10,0.8-11.6,2.5c-1.5,1.7-2.3,5.4-2.3,11.3L503.4,61.7L503.4,61.7z M574.6,43.7H562v36.5
		h-7.2V43.7h-7.3v-5.1h7.3v-6.1c0-4.8,1.3-8.1,3.8-9.8c2.5-1.7,6.4-2.6,11.5-2.6c0.4,0,0.7,0,1.1,0c0.4,0,0.8,0,1.2,0s0.7,0,1.1,0
		c0.4,0,0.8,0,1.1,0v5.2c-0.4-0.1-0.8-0.1-1.3-0.1c-0.4,0-0.9,0-1.3,0h-2.7c-2.8,0-4.7,0.5-5.8,1.6s-1.6,2.8-1.6,5v6.7h12.6
		L574.6,43.7L574.6,43.7z M610.1,43.6h-18.4v25.5c0,2.4,0.4,4,1.2,5s2.7,1.5,5.5,1.5c3.2,0,5.1-0.7,5.8-2.1s1-3.1,1-5.3v-2.8h6.8
		c0,4.3-0.7,7.9-2.2,10.9c-1.5,2.9-5.3,4.4-11.4,4.4c-5.3,0-9-0.8-11-2.5s-3-4.7-3-9.1V43.6h-6.2v-5h6.2V28.5h7.3v10.1h18.4
		L610.1,43.6L610.1,43.6z"/>
	<g>
		<path class="st4" d="M204.4,122.4h-2.8c0-1.3-0.3-2.2-0.8-2.5s-1.9-0.5-4.2-0.5c-2.1,0-3.4,0.2-4,0.5s-0.9,1.2-0.9,2.5
			c0,2,0.9,3,2.8,3.1l2.3,0.1l2.9,0.1c3.5,0.2,5.2,2,5.2,5.5c0,2.2-0.6,3.6-1.7,4.5c-1.2,0.8-3.3,1.2-6.4,1.2
			c-3.2,0-5.3-0.4-6.5-1.2c-1.2-0.8-1.8-2.2-1.8-4.2v-1h2.9v0.9c0,1.3,0.3,2.1,1,2.5c0.6,0.4,1.9,0.6,3.8,0.6c2.3,0,3.8-0.2,4.6-0.7
			c0.7-0.4,1.1-1.4,1.1-2.8c0-2-0.9-3-2.8-3c-4.3,0-7.1-0.4-8.5-1.1s-2-2.2-2-4.5c0-2.2,0.5-3.6,1.6-4.3c1.1-0.7,3.2-1.1,6.4-1.1
			c5.1,0,7.7,1.5,7.7,4.6L204.4,122.4L204.4,122.4z M223.2,129.7h2.8v1c0,4.1-2.7,6.2-8.1,6.2c-3.5,0-5.8-0.7-6.9-2
			c-1.1-1.3-1.7-4-1.7-8.1c0-3.8,0.6-6.4,1.7-7.8c1.1-1.4,3.3-2,6.5-2c3.1,0,5.3,0.5,6.4,1.4c1.1,0.9,1.7,2.6,1.7,5.2h-2.8v-0.5
			c0-1.5-0.4-2.5-1.1-3c-0.7-0.5-2.2-0.7-4.4-0.7c-2.1,0-3.5,0.5-4.1,1.4s-0.9,3.1-0.9,6.3c0,3.2,0.3,5.2,1,6.1s2.3,1.3,4.8,1.3
			c2.1,0,3.5-0.3,4.1-0.9C222.9,133.1,223.2,131.8,223.2,129.7L223.2,129.7z M246.8,117.3v19.3H244l0.2-2.5l-0.1-0.1
			c-1,1.9-3.1,2.9-6.3,2.9c-4.5,0-6.7-2.2-6.7-6.7v-12.8h2.8v12.8c0,1.7,0.3,2.9,0.9,3.5c0.6,0.6,1.7,0.9,3.4,0.9
			c2.2,0,3.7-0.4,4.6-1.3c0.8-0.9,1.2-2.5,1.2-4.8v-11L246.8,117.3L246.8,117.3z M255.8,109.1v27.5H253v-27.5H255.8z M261.8,117.3
			h2.8l-0.1,2.4l0.1,0.1c1-1.9,3.1-2.8,6.3-2.8c2.9,0,4.8,0.7,5.9,2.2c1.1,1.4,1.6,4.1,1.6,8c0,3.6-0.5,6.1-1.6,7.5s-3,2.1-5.8,2.1
			c-3.2,0-5.3-0.9-6.3-2.6h-0.1v10.5h-2.8V117.3z M270.1,119.4c-2.3,0-3.7,0.5-4.4,1.5c-0.7,1-1,3.1-1,6.3c0,3,0.4,4.9,1.1,5.9
			s2.2,1.5,4.5,1.5c2.1,0,3.5-0.5,4.2-1.4c0.7-1,1-2.9,1-5.9c0-3.3-0.3-5.4-1-6.4C273.8,119.9,272.4,119.4,270.1,119.4z
			 M294.1,117.3v2.3h-7.4v11.8c0,2.1,0.9,3.1,2.7,3.1c1.8,0,2.7-0.9,2.7-2.8v-0.9v-1.1h2.6v1.4c0,3.8-1.8,5.7-5.4,5.7
			c-3.7,0-5.6-1.6-5.6-4.7v-12.5H281v-2.3h2.7v-4.6h2.8v4.6H294.1L294.1,117.3z M301.2,109.1v3.2h-2.8v-3.2H301.2z M301.2,117.3
			v19.3h-2.8v-19.3H301.2z M307.2,117.3h2.7l-0.1,2.6l0.1,0.1c0.9-2,3-3,6.4-3c2.8,0,4.6,0.5,5.6,1.4c1,1,1.5,2.8,1.5,5.6v12.5h-2.8
			v-13c0-1.7-0.3-2.8-0.9-3.3c-0.6-0.6-1.8-0.9-3.6-0.9c-4,0-5.9,1.9-5.9,5.6v11.6h-2.8v-19.2H307.2z M345.6,117.3v20.5
			c0,2.8-0.6,4.7-1.8,5.8c-1.2,1-3.4,1.6-6.6,1.6c-2.9,0-4.8-0.4-5.9-1.3c-1-0.9-1.6-2.5-1.6-5h2.7c0,1.7,0.3,2.7,0.9,3.2
			s1.9,0.7,4,0.7s3.6-0.3,4.3-1c0.7-0.6,1.1-1.9,1.1-3.8v-3.9h-0.1c-0.7,1.8-2.8,2.7-6.3,2.7c-2.8,0-4.8-0.7-5.9-2.1s-1.6-4-1.6-7.7
			c0-3.9,0.5-6.5,1.6-7.9s3.1-2.1,6.1-2.1c3.2,0,5.2,1,6.2,2.9h0.1l-0.1-2.6L345.6,117.3L345.6,117.3z M337.2,119.4
			c-2.2,0-3.6,0.5-4.3,1.4c-0.7,0.9-1,3-1,6.1c0,3.2,0.3,5.2,1,6.2c0.7,0.9,2.1,1.4,4.3,1.4c2.2,0,3.7-0.5,4.4-1.6
			c0.7-1,1.1-3.2,1.1-6.5c0-2.9-0.4-4.8-1.1-5.7C340.9,119.9,339.4,119.4,337.2,119.4z M373.1,117.3v2.3h-7.4v11.8
			c0,2.1,0.9,3.1,2.7,3.1c1.8,0,2.7-0.9,2.7-2.8v-0.9v-1.1h2.6v1.4c0,3.8-1.8,5.7-5.4,5.7c-3.7,0-5.6-1.6-5.6-4.7v-12.5H360v-2.3
			h2.7v-4.6h2.8v4.6H373.1z M380.2,109.1v10.6h0.1c0.7-1.8,2.7-2.7,6-2.7c4.8,0,7.2,2.1,7.2,6.4v13.1h-2.8v-12.9
			c0-2.9-1.5-4.3-4.5-4.3c-2.4,0-4,0.4-4.8,1.3s-1.2,2.6-1.2,5.1v10.8h-2.8v-27.4H380.2L380.2,109.1z M407.6,117.1
			c3.6,0,5.9,0.6,6.9,1.9c1.1,1.2,1.6,3.9,1.6,8.1c0,4.1-0.5,6.8-1.6,8.1c-1.1,1.2-3.4,1.9-6.9,1.9s-5.9-0.6-6.9-1.9
			c-1.1-1.2-1.6-3.9-1.6-8.1c0-4.1,0.5-6.8,1.6-8.1C401.7,117.7,404,117.1,407.6,117.1z M407.6,119.4c-2.5,0-4,0.4-4.6,1.2
			c-0.6,0.8-0.9,2.9-0.9,6.4c0,3.4,0.3,5.5,0.9,6.4c0.6,0.8,2.1,1.2,4.6,1.2s4.1-0.4,4.7-1.2c0.6-0.8,0.9-2.9,0.9-6.4
			c0-3.4-0.3-5.5-0.9-6.4C411.6,119.8,410.1,119.4,407.6,119.4z M437.2,117.3v19.3h-2.8l0.2-2.5l-0.1-0.1c-1,1.9-3.1,2.9-6.3,2.9
			c-4.5,0-6.7-2.2-6.7-6.7v-12.8h2.8v12.8c0,1.7,0.3,2.9,0.9,3.5s1.7,0.9,3.4,0.9c2.2,0,3.7-0.4,4.6-1.3c0.8-0.9,1.2-2.5,1.2-4.8
			v-11L437.2,117.3L437.2,117.3z M459.6,117.3v20.5c0,2.8-0.6,4.7-1.8,5.8c-1.2,1-3.4,1.6-6.6,1.6c-2.9,0-4.8-0.4-5.9-1.3
			c-1-0.9-1.6-2.5-1.6-5h2.7c0,1.7,0.3,2.7,0.9,3.2s1.9,0.7,4,0.7s3.6-0.3,4.3-1c0.7-0.6,1.1-1.9,1.1-3.8v-3.9h-0.1
			c-0.7,1.8-2.8,2.7-6.3,2.7c-2.8,0-4.8-0.7-5.9-2.1s-1.6-4-1.6-7.7c0-3.9,0.5-6.5,1.6-7.9s3.1-2.1,6.1-2.1c3.2,0,5.2,1,6.2,2.9h0.1
			l-0.1-2.6L459.6,117.3L459.6,117.3z M451.2,119.4c-2.2,0-3.6,0.5-4.3,1.4c-0.7,0.9-1,3-1,6.1c0,3.2,0.3,5.2,1,6.2
			c0.7,0.9,2.1,1.4,4.3,1.4c2.2,0,3.7-0.5,4.4-1.6c0.7-1,1.1-3.2,1.1-6.5c0-2.9-0.4-4.8-1.1-5.7
			C454.9,119.9,453.4,119.4,451.2,119.4z M468.4,109.1v10.6h0.1c0.7-1.8,2.7-2.7,6-2.7c4.8,0,7.2,2.1,7.2,6.4v13.1h-2.8v-12.9
			c0-2.9-1.5-4.3-4.5-4.3c-2.4,0-4,0.4-4.8,1.3s-1.2,2.6-1.2,5.1v10.8h-2.8v-27.4H468.4L468.4,109.1z M498,117.3v2.3h-7.4v11.8
			c0,2.1,0.9,3.1,2.7,3.1c1.8,0,2.7-0.9,2.7-2.8v-0.9v-1.1h2.6v1.4c0,3.8-1.8,5.7-5.4,5.7c-3.7,0-5.6-1.6-5.6-4.7v-12.5h-2.7v-2.3
			h2.7v-4.6h2.8v4.6H498z M517.2,122.4h-2.8c0-1.3-0.3-2.2-0.8-2.5s-1.9-0.5-4.2-0.5c-2.1,0-3.4,0.2-4,0.5s-0.9,1.2-0.9,2.5
			c0,2,0.9,3,2.8,3.1l2.3,0.1l2.9,0.1c3.5,0.2,5.2,2,5.2,5.5c0,2.2-0.6,3.6-1.7,4.5c-1.2,0.8-3.3,1.2-6.4,1.2
			c-3.2,0-5.3-0.4-6.5-1.2c-1.2-0.8-1.8-2.2-1.8-4.2v-1h2.9v0.9c0,1.3,0.3,2.1,1,2.5c0.6,0.4,1.9,0.6,3.8,0.6c2.3,0,3.8-0.2,4.6-0.7
			c0.7-0.4,1.1-1.4,1.1-2.8c0-2-0.9-3-2.8-3c-4.3,0-7.1-0.4-8.5-1.1s-2-2.2-2-4.5c0-2.2,0.5-3.6,1.6-4.3c1.1-0.7,3.2-1.1,6.4-1.1
			c5.1,0,7.7,1.5,7.7,4.6L517.2,122.4L517.2,122.4z M526,132.9v3.7h-3.1v-3.7H526z M535.1,132.9v3.7H532v-3.7H535.1z M544.1,132.9
			v3.7H541v-3.7H544.1z"/>
	</g>
</g>
</svg>
